<svg viewBox="0 0 1043 94" xmlns="http://www.w3.org/2000/svg"><path d="m18.5 3.6 14.1 43.4 15.2-43.4h13.7v86.7h-10.7v-34.5l.9-36.2-16 46.7h-6.3l-14.8-45.5.9 35v34.6h-10.7v-86.8z"/><path d="m124 67.9h-29l-7 22.5h-11l28-86.7h9.2l27.5 86.7h-11zm-25.9-9.6h23.1l-11.4-37.6z"/><path d="m207.4 13h-26.8v77.3h-10.7v-77.3h-26.9v-9.4h64.3v9.4z"/><path d="m273.8 50.3h-36.2v30.7h42.2v9.4h-53.3v-86.8h52.7v9.4h-41.7v27.9h36.2v9.4z"/><path d="m327.4 55h-17.3v35.4h-11v-86.8h25.4c4.1.1 7.9.7 11.4 1.7s6.7 2.7 9.4 4.8 4.8 4.8 6.3 8.1c1.5 3.2 2.3 7 2.3 11.4 0 2.8-.4 5.4-1.2 7.7s-1.9 4.5-3.4 6.4-3.1 3.6-5.1 5.1-4.2 2.7-6.6 3.8l18.4 37.1-.1.7h-11.6zm-17.3-9.1h14.8c2.5 0 4.8-.4 7-1.2 2.2-.7 4.1-1.8 5.7-3.2s2.9-3.1 3.9-5.1 1.4-4.3 1.4-6.9c0-2.8-.5-5.2-1.4-7.3s-2.2-3.8-3.8-5.2-3.6-2.5-5.8-3.2-4.7-1.1-7.4-1.1h-14.5v33.2z"/><path d="m370.6 3.6h52.4v9.6h-20.8v67.6h20.8v9.5h-52.4v-9.5h20.3v-67.6h-20.3z"/><path d="m482.8 67.9h-29l-7 22.5h-11l28-86.7h9.2l27.5 86.7h-11zm-26-9.6h23.1l-11.4-37.6z"/><path d="m527.3 81h42.4v9.4h-53.4v-86.8h11z"/><path d="m617.2 90.4v-86.8h20.1c6 .1 11.4 1.1 16.2 3.1 4.7 2 8.8 4.7 12 8.2 3.3 3.5 5.8 7.7 7.5 12.6s2.6 10.3 2.7 16.3v6.4c0 6-.9 11.4-2.7 16.3s-4.2 9.1-7.5 12.6-7.3 6.3-12 8.2c-4.7 2-10.1 3-16.2 3h-20.1zm11.2-77.7v68.7h8.9c4.7 0 8.7-.9 12.2-2.5 3.4-1.6 6.2-3.8 8.5-6.6 2.2-2.8 3.9-6.1 5-9.8 1.1-3.8 1.7-7.9 1.7-12.3v-6.5c0-4.4-.6-8.5-1.7-12.2-1.1-3.8-2.8-7-5-9.8s-5-4.9-8.5-6.5c-3.4-1.6-7.5-2.4-12.2-2.5h-8.9z"/><path d="m741.1 50.3h-36.2v30.7h42.2v9.4h-53.3v-86.8h52.7v9.4h-41.7v27.9h36.2v9.4z"/><path d="m808.4 68.4c0-2.7-.6-4.9-1.8-6.7s-2.8-3.4-4.7-4.6c-1.9-1.3-4-2.3-6.3-3.1s-4.5-1.6-6.6-2.3c-3.1-1-6.2-2.2-9.3-3.6-3.2-1.4-6-3.1-8.6-5.1s-4.7-4.4-6.4-7.2c-1.6-2.8-2.5-6-2.5-9.7s.8-7.1 2.5-10c1.6-2.9 3.8-5.4 6.5-7.4s5.7-3.6 9.1-4.6c3.4-1.1 6.8-1.6 10.2-1.6 3.8 0 7.4.6 10.9 1.9 3.5 1.2 6.6 3 9.3 5.3s4.9 5 6.5 8.2 2.5 6.8 2.6 10.8h-11.3c-.3-2.5-.9-4.8-1.8-6.8s-2.1-3.8-3.6-5.3-3.3-2.6-5.4-3.4-4.4-1.2-7.1-1.2c-2.1 0-4.2.3-6.2.9s-3.8 1.5-5.4 2.7-2.8 2.7-3.8 4.4c-.9 1.7-1.4 3.8-1.4 6.1 0 2.5.7 4.6 1.9 6.3s2.8 3.2 4.7 4.4 3.9 2.2 6.1 3 4.3 1.5 6.2 2.1c2.1.7 4.3 1.4 6.5 2.3s4.3 1.8 6.3 2.9 3.9 2.4 5.7 3.8c1.7 1.4 3.3 3 4.6 4.7s2.3 3.7 3.1 5.8c.7 2.1 1.1 4.5 1.1 7.1 0 3.9-.9 7.3-2.6 10.2s-4 5.3-6.7 7.2-5.8 3.4-9.3 4.3-6.9 1.5-10.4 1.5c-3.9 0-7.6-.6-11.3-1.8s-7-2.9-9.9-5.2-5.3-5-7.1-8.2-2.8-6.9-2.9-11.1h11.3c.4 2.7 1.1 5.1 2.2 7.2s2.5 3.9 4.3 5.3c1.7 1.4 3.8 2.5 6 3.3 2.3.7 4.8 1.1 7.5 1.1 2.1 0 4.3-.3 6.3-.8 2.1-.5 3.9-1.4 5.6-2.5 1.6-1.1 3-2.6 4-4.3.8-1.8 1.4-3.9 1.4-6.3z"/><path d="m833.7 3.6h52.4v9.6h-20.8v67.6h20.8v9.5h-52.4v-9.5h20.3v-67.6h-20.3z"/><path d="m961.2 79c-3.7 4.3-7.8 7.5-12.6 9.5-4.7 2.1-9.9 3.1-15.5 3-3.6 0-6.9-.6-9.9-1.6-3-1.1-5.7-2.5-8.1-4.3s-4.5-4-6.3-6.5-3.3-5.2-4.5-8.1-2.1-6-2.7-9.2-.9-6.4-1-9.7v-10.1c0-3.2.3-6.4.9-9.6.5-3.2 1.4-6.3 2.5-9.2s2.5-5.7 4.2-8.2 3.7-4.7 6-6.6c2.3-1.8 5-3.3 7.9-4.4s6.2-1.6 9.9-1.6c4.1 0 7.8.6 11.2 1.9 3.4 1.2 6.4 3 8.9 5.4 2.5 2.3 4.6 5.1 6.1 8.4s2.5 6.9 2.9 11h-10.9c-.4-2.5-1.1-4.8-2-6.9s-2.1-3.9-3.6-5.5c-1.5-1.5-3.3-2.7-5.3-3.5-2.1-.9-4.5-1.3-7.2-1.3-2.6 0-4.9.4-7 1.3-2 .9-3.8 2.1-5.3 3.6s-2.8 3.3-3.8 5.3-1.8 4.1-2.4 6.3-1.1 4.5-1.4 6.8-.4 4.5-.4 6.7v10.2c0 2.2.2 4.4.6 6.8.3 2.3.9 4.6 1.6 6.8s1.6 4.3 2.7 6.3 2.5 3.7 4 5.2c1.6 1.5 3.4 2.7 5.5 3.6s4.4 1.4 7 1.4c1.5 0 3.1 0 4.7-.2s3.2-.5 4.8-1 3-1.1 4.3-1.9 2.5-1.9 3.4-3.2l.1-19.5h-17.6v-9.3h28.1z"/><path d="m1038.1 90.4h-11.2l-33.7-64.8-.2 64.8h-11v-86.8h11.2l33.7 64.7.2-64.7h11.1v86.8z"/></svg>